<?xml version="1.0" encoding="iso-8859-1"?>
<!-- Generator: Adobe Illustrator 19.0.0, SVG Export Plug-In . SVG Version: 6.00 Build 0)  -->
<svg version="1.1" id="Layer_1" xmlns="http://www.w3.org/2000/svg" xmlns:xlink="http://www.w3.org/1999/xlink" x="0px" y="0px"
	 viewBox="0 0 512 512" style="enable-background:new 0 0 512 512;" xml:space="preserve">
<g>
	<g>
		<path d="M437.019,74.981C388.667,26.628,324.379,0,256,0S123.333,26.628,74.981,74.981C26.628,123.333,0,187.621,0,256
			s26.628,132.667,74.981,181.019C123.333,485.372,187.621,512,256,512s132.667-26.628,181.019-74.981S512,324.379,512,256
			S485.372,123.333,437.019,74.981z M256,495.832C123.756,495.832,16.168,388.244,16.168,256S123.756,16.168,256,16.168
			S495.832,123.756,495.832,256S388.244,495.832,256,495.832z"/>
	</g>
</g>
<g>
	<g>
		<path d="M436.352,162.391c-2.433-2.104-5.958-2.463-8.875-1.11c-4.183,1.94-8.457,3.644-12.806,5.107
			c4.313-5.884,7.758-12.422,10.188-19.432c1.002-2.891,0.503-6.176-1.569-8.427c-2.593-2.814-6.723-3.406-9.963-1.56
			c-11.815,6.733-24.558,11.306-37.931,13.618c-14.958-13.729-34.201-21.24-54.643-21.24c-42.313,0-77.147,32.642-80.648,74.065
			c-8.741-1.364-25.844-6.241-29.933-7.578c-29.581-10.075-56.228-27.814-77.075-51.307c-1.236-1.393-2.864-2.429-4.695-2.764
			c-3.68-0.672-7.171,1.186-8.745,4.339c-5.181,10.383-7.809,21.548-7.809,33.185c0,16.093,5.038,31.261,14.113,43.73
			c-2.828-0.531-5.838,0.462-7.812,2.89c-1.135,1.396-1.703,3.168-1.77,4.966c-0.03,0.82-0.057,1.643-0.057,2.472
			c0,21.817,9.99,41.646,26.136,54.588c-1.115,0.755-2.055,1.797-2.703,3.082c-0.963,1.904-1.07,4.143-0.434,6.178
			c7.052,22.559,24.572,39.739,46.292,46.781c-19.673,11.976-42.429,18.434-65.679,18.434c-2.053,0-4.166-0.053-6.279-0.156
			c-4.046-0.185-7.675,2.639-8.371,6.744c-0.568,3.349,1.162,6.698,4.087,8.423c29.718,17.529,63.734,26.792,98.39,26.792
			c41.361,0,80.758-12.881,113.607-36.725c4.052-2.942,4.499-8.821,0.959-12.362l-0.003-0.003
			c-2.852-2.852-7.338-3.159-10.605-0.793c-29.275,21.198-65.207,33.714-103.959,33.714c-21.719,0-43.162-3.968-63.255-11.61
			c24.303-4.268,47.275-14.808,66.409-30.712c2.312-1.922,3.529-4.962,2.947-7.911c-0.744-3.767-3.972-6.43-7.707-6.535
			c-19.686-0.558-37.26-11.435-46.698-28.06c4.501-0.216,9.006-0.832,13.44-1.841c3.382-0.77,6.119-3.472,6.559-6.913
			c0.529-4.142-2.134-7.925-6.085-8.897c-21.117-5.2-36.647-22.364-40.14-43.256c6.19,1.451,12.624,2.092,19.047,1.896
			c3.963-0.119,7.317-3.109,7.792-7.166c0.374-3.196-1.323-6.291-4.07-7.966c-17.529-10.682-27.985-29.272-27.985-49.783
			c0-5.014,0.623-9.917,1.859-14.665c21.193,20.954,46.914,36.922,75.086,46.518c0.258,0.088,28.093,8.754,38.636,8.797
			c0.688,0.017,3.975,0.162,3.98,0.162c3.388,0.137,6.673-1.919,7.953-5.326c0.368-0.978,0.502-2.03,0.477-3.074
			c-0.011-0.471-0.023-0.942-0.023-1.416c0-35.713,29.055-64.768,64.769-64.768c17.487,0,33.878,6.872,46.158,19.348
			c1.777,1.807,4.282,2.697,6.793,2.349c8.227-1.141,16.256-3.025,24.037-5.632c-4.142,4.544-9.025,8.437-14.502,11.504
			c-3.692,2.067-5.258,6.558-3.518,10.415l0.119,0.264c1.424,3.152,4.691,5.045,8.136,4.72c6.687-0.638,13.282-1.739,19.753-3.291
			c-5.725,5.904-12.02,11.267-18.849,16.051c-2.228,1.561-3.509,4.147-3.416,6.865l0.017,0.511c0.019,0.553,0.04,1.107,0.04,1.664
			v0.731c-0.186,45.29-17.461,86.654-45.668,117.994c-2.882,3.201-2.702,8.117,0.344,11.163c3.312,3.312,8.72,3.151,11.855-0.332
			c31.691-35.208,49.224-80.18,49.633-127.902c14.422-10.743,26.595-23.876,36.227-39.093
			C440.029,169.5,439.434,165.057,436.352,162.391z"/>
	</g>
</g>
<g>
</g>
<g>
</g>
<g>
</g>
<g>
</g>
<g>
</g>
<g>
</g>
<g>
</g>
<g>
</g>
<g>
</g>
<g>
</g>
<g>
</g>
<g>
</g>
<g>
</g>
<g>
</g>
<g>
</g>
</svg>
